<svg width="60" height="59" viewBox="0 0 60 59" fill="none" xmlns="http://www.w3.org/2000/svg">
<g filter="url(#filter0_i_10132_23860)">
<path d="M46.5392 38.6263C47.7205 38.6317 48.6759 40.0031 48.6759 41.6939C48.6759 43.3847 47.7119 44.7709 46.5252 44.7608C45.8905 44.7554 41.6525 44.7534 41.0178 44.752C39.5965 44.748 38.9638 45.3503 38.6565 47.2403C38.2285 49.8703 37.3725 52.1648 36.1931 54.2796C35.8798 54.8421 35.8331 55.6416 36.1378 56.2142C37.3318 58.4567 38.8558 58.6208 40.3725 58.0455C42.5705 57.2122 44.6792 56.0123 46.7165 54.5612C50.7172 51.7124 54.2033 47.9567 56.818 42.7027C58.8206 38.6789 59.9893 34.2264 60 29.2269C60.004 27.4112 59.4533 26.6104 58.1766 26.5962C57.0473 26.5834 50.2726 26.5759 49.1432 26.5685C47.9059 26.5604 46.9065 25.1228 46.9065 23.3517C46.9065 21.5805 47.9119 20.1281 49.1539 20.1321C50.0372 20.1348 56.57 20.147 57.4166 20.1625C58.2286 20.1774 58.518 19.569 58.1353 18.5311C56.9413 15.2947 55.3046 12.5742 53.3519 10.2372C50.1579 6.41599 46.4832 3.91491 42.5205 2.21668C37.5151 0.0714459 32.4024 -0.374212 27.2264 0.274018C22.4057 0.878357 17.797 2.62723 13.4462 5.68403C9.94622 8.14326 6.81019 11.3122 4.30017 15.631C1.51948 20.4137 -0.155868 25.8008 0.0114668 32.1635C0.0454671 33.4472 0.338136 34.4904 1.43548 35.1184C2.85749 35.9321 4.50084 35.5411 5.69352 34.1839C6.96153 32.7409 8.24021 31.3013 9.69622 30.2843C13.4389 27.6691 17.3709 26.5199 21.483 26.6394C24.8137 26.736 28.1284 27.7022 31.1357 29.7556C33.5864 31.4296 35.7018 33.7098 37.2125 37.0327C37.7091 38.1259 38.3665 38.6951 39.3005 38.6465L46.5392 38.6256V38.6263Z" fill="url(#paint0_linear_10132_23860)"/>
</g>
<defs>
<filter id="filter0_i_10132_23860" x="0" y="0" width="65" height="63.3271" filterUnits="userSpaceOnUse" color-interpolation-filters="sRGB">
<feFlood flood-opacity="0" result="BackgroundImageFix"/>
<feBlend mode="normal" in="SourceGraphic" in2="BackgroundImageFix" result="shape"/>
<feColorMatrix in="SourceAlpha" type="matrix" values="0 0 0 0 0 0 0 0 0 0 0 0 0 0 0 0 0 0 127 0" result="hardAlpha"/>
<feOffset dx="5" dy="5"/>
<feGaussianBlur stdDeviation="15"/>
<feComposite in2="hardAlpha" operator="arithmetic" k2="-1" k3="1"/>
<feColorMatrix type="matrix" values="0 0 0 0 1 0 0 0 0 0.504 0 0 0 0 0.225 0 0 0 1 0"/>
<feBlend mode="normal" in2="shape" result="effect1_innerShadow_10132_23860"/>
</filter>
<linearGradient id="paint0_linear_10132_23860" x1="13.4857" y1="6.07578" x2="53.1017" y2="48.4578" gradientUnits="userSpaceOnUse">
<stop stop-color="#FF5D00"/>
<stop offset="0.5" stop-color="#FF6B16"/>
<stop offset="1" stop-color="#FF8139"/>
</linearGradient>
</defs>
</svg>
